<svg width="24" height="19" viewBox="0 0 24 19" fill="none" xmlns="http://www.w3.org/2000/svg">
<path d="M12 2.88462L11.3968 3.39039C11.4006 3.39377 11.4044 3.39712 11.4081 3.40043L12 2.88462ZM13.6407 5.34462C13.9677 5.62939 14.4978 5.6293 14.8246 5.34443C15.1516 5.05956 15.1515 4.59776 14.8244 4.31299L13.6407 5.34462ZM9.12675 15.3526C7.43485 14.1907 5.58482 13.0561 4.11716 11.6164C2.6782 10.2048 1.67442 8.55773 1.67442 6.42088H0C0 9.01293 1.23963 10.9904 2.86518 12.5849C4.46202 14.1513 6.4976 15.4044 8.09014 16.4981L9.12675 15.3526ZM1.67442 6.42088C1.67442 4.32928 3.03111 2.57528 4.88301 1.83784C6.68212 1.12143 9.09953 1.31116 11.3968 3.39039L12.6032 2.37885C9.8774 -0.0882478 6.7134 -0.494856 4.1869 0.511205C1.71317 1.49625 0 3.78355 0 6.42088H1.67442ZM8.09014 16.4981C8.66194 16.8908 9.27577 17.3095 9.89782 17.6262C10.5197 17.9427 11.2293 18.2 12 18.2V16.7413C11.6544 16.7413 11.2477 16.624 10.7426 16.3667C10.2377 16.1097 9.71395 15.7559 9.12675 15.3526L8.09014 16.4981ZM15.9099 16.4981C17.5024 15.4044 19.538 14.1513 21.1348 12.5849C22.7604 10.9904 24 9.01293 24 6.42088H22.3256C22.3256 8.55773 21.3218 10.2048 19.8828 11.6164C18.4151 13.0561 16.5651 14.1907 14.8733 15.3526L15.9099 16.4981ZM24 6.42088C24 3.78355 22.2868 1.49625 19.8131 0.511205C17.2866 -0.494856 14.1226 -0.0882478 11.3968 2.37885L12.6032 3.39039C14.9004 1.31116 17.3178 1.12143 19.117 1.83784C20.9689 2.57528 22.3256 4.32928 22.3256 6.42088H24ZM14.8733 15.3526C14.286 15.7559 13.7623 16.1097 13.2574 16.3667C12.7523 16.624 12.3456 16.7413 12 16.7413V18.2C12.7707 18.2 13.4803 17.9427 14.1022 17.6262C14.7243 17.3095 15.338 16.8908 15.9099 16.4981L14.8733 15.3526ZM11.4081 3.40043L13.6407 5.34462L14.8244 4.31299L12.5919 2.36882L11.4081 3.40043Z" fill="#F21D1D"/>
</svg>
